<svg width="65" height="65" viewBox="0 0 65 65" fill="none" xmlns="http://www.w3.org/2000/svg">
<g clip-path="url(#clip0_279_1736)">
<mask id="mask0_279_1736" style="mask-type:luminance" maskUnits="userSpaceOnUse" x="0" y="0" width="65" height="65">
<path d="M0 0H65V65H0V0Z" fill="white"/>
</mask>
<g mask="url(#mask0_279_1736)">
<path d="M6.35374 32.4532C3.71718 34.8318 2.01906 37.0804 1.05218 39.4956C-0.00406758 42.1362 -0.00203637 44.594 -5.12438e-06 46.5115V54.8437C-5.12438e-06 56.9986 0.856019 59.0652 2.37975 60.589C3.90349 62.1127 5.97011 62.9687 8.125 62.9687H16.25C19.1628 62.9687 21.1616 62.1968 22.4859 61.689L22.5266 61.6707C22.834 61.547 23.1457 61.4339 23.4609 61.3315C23.6641 61.2706 23.7555 61.2584 23.792 61.2564C23.8164 61.2564 23.855 61.2523 23.9423 61.2726C24.0419 61.2929 24.247 61.3539 24.5883 61.5245C25.4658 61.9632 25.935 62.3431 26.4855 62.79L26.5647 62.855C26.9953 63.2064 27.7672 63.8381 28.7869 64.2911C29.9569 64.8131 31.1777 65.002 32.5 65.002C33.8203 65.002 35.0431 64.8131 36.2131 64.2911C37.2328 63.8381 38.0047 63.2064 38.4353 62.855L38.5145 62.79C39.091 62.2907 39.7276 61.8656 40.4097 61.5245C40.7509 61.3539 40.9581 61.2929 41.0577 61.2726C41.1066 61.2592 41.1573 61.2537 41.208 61.2564C41.3214 61.2695 41.433 61.2947 41.5411 61.3315C41.7706 61.4026 42.0266 61.4981 42.4734 61.6707L42.5141 61.687C43.8384 62.1989 45.8372 62.9687 48.75 62.9687H56.875C59.0299 62.9687 61.0965 62.1127 62.6202 60.589C64.144 59.0652 65 56.9986 65 54.8437V46.5156C65 44.5981 65.0041 42.1362 63.9478 39.4976C62.9809 37.0804 61.2808 34.8318 58.6462 32.4512C57.8947 28.3643 55.6197 22.5387 49.8245 19.0653C44.8581 16.0834 40.04 15.6873 36.1542 16.8675C34.8522 17.2578 33.6193 17.8492 32.5 18.6204C31.3801 17.8491 30.1464 17.2576 28.8437 16.8675C24.96 15.6893 20.1419 16.0834 15.1755 19.0632C9.38031 22.5407 7.10531 28.3664 6.35374 32.4532ZM10.1562 34.5312C11.4725 33.4343 12.7014 32.049 13.9628 30.6251C16.8187 27.4097 19.8331 24.0093 24.375 23.3593C27.1294 22.9653 29.183 23.3837 30.5378 23.8875C29.2053 25.0372 28.015 26.4915 27.3264 28.0109C26.8186 29.1301 26.5444 30.3692 26.7861 31.5798C26.3239 31.5141 25.8575 31.4821 25.3906 31.4843C21.3281 31.4843 17.2656 38.5937 23.3594 43.6718C25.5937 45.5365 27.2391 46.5461 28.5553 47.3525C28.8986 47.5637 29.2195 47.7587 29.5222 47.9537C30.1316 48.3457 30.6678 48.7276 31.1675 49.1968C30.7734 49.6925 30.3631 50.182 29.9487 50.6756L29.9122 50.7182C29.0042 51.8009 28.0678 52.9201 27.3975 54.0556C26.7231 55.2053 26.2539 56.4789 26.4022 57.8743L26.4062 57.8906C24.0703 56.7226 22.7419 57.2345 21.0681 57.8804C19.8291 58.3578 18.4031 58.9062 16.25 58.9062H8.125C7.04755 58.9062 6.01424 58.4782 5.25237 57.7163C4.49051 56.9545 4.0625 55.9212 4.0625 54.8437V46.7187C4.0625 42.6562 4.0625 39.6093 10.1562 34.5312ZM32.5 24.9478L32.5528 24.9051C32.955 24.5882 35.6464 22.6504 40.625 23.3614C45.1669 24.0093 48.1812 27.4097 51.0352 30.6251C52.2986 32.047 53.5275 33.4343 54.8437 34.5312C55.0144 34.6734 55.183 34.8156 55.3455 34.9578C60.9375 39.78 60.9375 42.77 60.9375 46.7187V54.8437C60.9375 55.9212 60.5095 56.9545 59.7476 57.7163C58.9857 58.4782 57.9524 58.9062 56.875 58.9062H48.75C46.5948 58.9062 45.1709 58.3578 43.9359 57.8804C42.2602 57.2345 40.9297 56.7226 38.5937 57.8906C37.312 58.5325 36.5666 59.1378 35.9511 59.6375C34.9964 60.4154 34.3545 60.9375 32.5 60.9375C31.2406 60.9375 30.5419 60.6978 29.9223 60.2997C28.8884 59.2637 28.5005 58.3943 28.4233 57.657C28.338 56.8648 28.5858 56.0401 29.1484 55.0875C29.7172 54.1226 30.5358 53.1375 31.4681 52.0243L31.5392 51.9411C32.1608 51.1996 32.823 50.4115 33.4405 49.5747C34.0478 48.9165 34.6917 48.4209 35.4514 47.9172C35.8272 47.6673 36.2314 47.4154 36.6702 47.1412C38.3999 46.0929 40.0601 44.934 41.6406 43.6718C47.3586 39.0975 43.6719 31.4843 39.6094 31.4843C37.4319 31.4843 36.4203 32.0673 35.4839 32.6097C34.6714 33.0768 33.9137 33.5156 32.5 33.5156C31.5128 33.5156 30.8445 33.3023 30.2555 33.0139C29.3211 32.4736 28.9209 31.8418 28.7869 31.2203C28.6406 30.5561 28.7666 29.7497 29.1748 28.8498C29.8289 27.4117 31.1045 25.9654 32.4797 24.9295L32.4837 24.9336L32.4959 24.9457L32.5 24.9478ZM47.7344 22.5468C51.2809 24.6736 53.1761 28.0231 54.1125 31.0029C53.8203 30.6902 53.5318 30.374 53.2472 30.0543L52.5789 29.3028C51.7786 28.4009 50.9194 27.434 50.0276 26.5281C47.7201 24.1901 44.848 21.9111 40.9114 21.3484C39.1649 21.081 37.3854 21.1154 35.6505 21.45C38.4069 19.9732 42.7456 19.5548 47.7344 22.5468ZM24.0886 21.3484C20.1541 21.9111 17.2798 24.1901 14.9723 26.5281C14.0786 27.434 13.2234 28.4009 12.4211 29.3028L11.7528 30.0543C11.4682 30.374 11.1797 30.6902 10.8875 31.0029C11.8239 28.0231 13.7191 24.6736 17.2656 22.5468C22.2544 19.5548 26.5931 19.9732 29.3516 21.45C27.9195 21.1595 26.1625 21.0518 24.0886 21.3484Z" fill="#E380E4"/>
</g>
</g>
<defs>
<clipPath id="clip0_279_1736">
<rect width="65" height="65" fill="white"/>
</clipPath>
</defs>
</svg>
