<svg width="65" height="65" viewBox="0 0 65 65" fill="none" xmlns="http://www.w3.org/2000/svg">
<path d="M5.67261 30.0258C5.64014 29.6519 5.68575 29.2753 5.80656 28.9199C5.92737 28.5645 6.12072 28.2381 6.37437 27.9614C6.62801 27.6848 6.93639 27.4638 7.27995 27.3126C7.62352 27.1615 7.99475 27.0833 8.37011 27.0832H13.5417C14.26 27.0832 14.9488 27.3686 15.4567 27.8765C15.9647 28.3844 16.25 29.0733 16.25 29.7916V55.5207C16.25 56.239 15.9647 56.9279 15.4567 57.4358C14.9488 57.9437 14.26 58.2291 13.5417 58.2291H10.6085C9.93069 58.2292 9.27741 57.9752 8.77774 57.5172C8.27806 57.0591 7.96832 56.4303 7.90969 55.755L5.67261 30.0258ZM24.375 28.9452C24.375 27.8131 25.0792 26.8002 26.1016 26.3181C28.3346 25.2646 32.1384 23.148 33.8542 20.2867C36.0655 16.5979 36.4826 9.93408 36.5503 8.40793C36.5598 8.19397 36.5544 7.98001 36.5828 7.76876C36.9498 5.12408 42.0536 8.21293 44.0104 11.4792C45.0734 13.2504 45.2089 15.5782 45.0978 17.3969C44.9773 19.3415 44.4072 21.2197 43.8479 23.0857L42.6563 27.0629H57.3584C57.7769 27.0629 58.1896 27.1598 58.5643 27.3461C58.939 27.5324 59.2655 27.803 59.518 28.1366C59.7706 28.4703 59.9424 28.8579 60.02 29.2691C60.0976 29.6803 60.0788 30.1038 59.9652 30.5066L52.6933 56.2574C52.5328 56.8253 52.1912 57.3253 51.7204 57.6812C51.2496 58.0371 50.6754 58.2295 50.0852 58.2291H27.0833C26.365 58.2291 25.6762 57.9437 25.1683 57.4358C24.6603 56.9279 24.375 56.239 24.375 55.5207V28.9452Z" stroke="#D18A62" stroke-width="5.41667" stroke-linecap="round" stroke-linejoin="round"/>
</svg>
