<svg width="295" height="104" viewBox="0 0 295 104" fill="none" xmlns="http://www.w3.org/2000/svg">
<rect width="295" height="104" rx="8" fill="#126BBE"/>
<path d="M39.488 39.568C39.488 43.1093 38.0373 46.2027 35.136 48.848C32.2347 51.4507 28.7787 52.8587 24.768 53.072C24.7253 53.7973 24.6827 54.352 24.64 54.736C24.64 55.0773 24.64 55.376 24.64 55.632C24.64 57.5947 24.96 58.9813 25.6 59.792C26.2827 60.6027 27.4987 61.008 29.248 61.008C31.2533 61.008 33.088 60.56 34.752 59.664C36.4587 58.7253 38.4 57.0187 40.576 54.544H42.752C40.2773 58.5547 37.5893 61.5413 34.688 63.504C31.7867 65.424 28.608 66.384 25.152 66.384C21.8667 66.384 19.3707 65.5307 17.664 63.824C16 62.1173 15.168 59.5787 15.168 56.208C15.168 53.776 15.552 51.1947 16.32 48.464C17.088 45.7333 18.112 43.3013 19.392 41.168C20.9707 38.608 22.848 36.688 25.024 35.408C27.2427 34.0853 29.7173 33.424 32.448 33.424C34.7947 33.424 36.544 33.936 37.696 34.96C38.8907 35.9413 39.488 37.4773 39.488 39.568ZM32.96 36.816C31.5093 36.816 30.0373 38.1173 28.544 40.72C27.0933 43.28 26.0053 46.3733 25.28 50C27.7547 49.8293 29.9093 48.6987 31.744 46.608C33.6213 44.4747 34.56 42.0853 34.56 39.44C34.56 38.544 34.432 37.8827 34.176 37.456C33.92 37.0293 33.5147 36.816 32.96 36.816ZM56.427 59.152C56.427 58.384 56.5123 57.424 56.683 56.272C56.8963 55.12 57.3017 53.2853 57.899 50.768C58.4963 48.336 58.8803 46.5867 59.051 45.52C59.2217 44.4533 59.307 43.5573 59.307 42.832C59.307 41.7653 59.115 40.9547 58.731 40.4C58.347 39.8453 57.771 39.568 57.003 39.568C55.979 39.568 55.019 40.1013 54.123 41.168C53.2697 42.192 52.5657 43.6213 52.011 45.456L47.659 66H38.443L45.227 34H54.443L53.739 37.328C54.8057 36.1333 55.9577 35.2373 57.195 34.64C58.4323 34.0427 59.7763 33.744 61.227 33.744C63.4883 33.744 65.2377 34.3627 66.475 35.6C67.7123 36.8373 68.331 38.6293 68.331 40.976C68.331 41.9573 68.203 43.1307 67.947 44.496C67.7337 45.8187 67.2857 47.8667 66.603 50.64C66.0483 52.816 65.6857 54.352 65.515 55.248C65.3443 56.144 65.259 56.8907 65.259 57.488C65.259 58.384 65.4723 59.0667 65.899 59.536C66.3257 59.9627 66.9657 60.176 67.819 60.176C68.8857 60.176 69.803 59.8133 70.571 59.088C71.339 58.3627 72.2137 56.848 73.195 54.544H75.883C74.5177 58.512 72.8537 61.4773 70.891 63.44C68.971 65.4027 66.667 66.384 63.979 66.384C61.5897 66.384 59.7337 65.744 58.411 64.464C57.0883 63.1413 56.427 61.3707 56.427 59.152ZM75.4275 34H77.5395L79.4595 25.168L88.9315 23.888L86.7555 34H90.5955L90.0835 36.56H86.2435L82.1475 55.76C82.0622 56.144 81.9982 56.5067 81.9555 56.848C81.9128 57.1467 81.8915 57.4667 81.8915 57.808C81.8915 58.6613 82.0835 59.28 82.4675 59.664C82.8942 60.0053 83.5768 60.176 84.5155 60.176C85.7102 60.176 86.8408 59.664 87.9075 58.64C88.9742 57.5733 89.7635 56.208 90.2755 54.544H92.9635C91.5982 58.4267 89.7635 61.3707 87.4595 63.376C85.1555 65.3813 82.5102 66.384 79.5235 66.384C77.3902 66.384 75.7048 65.7227 74.4675 64.4C73.2728 63.0347 72.6755 61.136 72.6755 58.704C72.6755 58.1493 72.7182 57.5307 72.8035 56.848C72.8888 56.1227 73.0168 55.3547 73.1875 54.544L77.0275 36.56H74.9155L75.4275 34ZM88.5415 56.144C88.5415 53.712 88.9255 51.1307 89.6935 48.4C90.5042 45.6693 91.5922 43.2373 92.9575 41.104C94.5362 38.5867 96.4348 36.688 98.6535 35.408C100.872 34.0853 103.347 33.424 106.078 33.424C108.808 33.424 110.856 34.2773 112.222 35.984C113.587 37.6907 114.27 40.2507 114.27 43.664C114.355 43.7067 114.44 43.7493 114.526 43.792C114.654 43.792 114.803 43.792 114.974 43.792C116.296 43.792 117.875 43.4293 119.71 42.704C121.544 41.9787 123.251 41.0613 124.83 39.952L125.406 41.68C124.211 42.96 122.611 44.0693 120.606 45.008C118.643 45.9467 116.467 46.608 114.078 46.992C113.566 52.752 111.902 57.4027 109.086 60.944C106.27 64.4853 102.835 66.256 98.7815 66.256C95.4535 66.256 92.9148 65.4027 91.1655 63.696C89.4162 61.9893 88.5415 59.472 88.5415 56.144ZM106.59 37.328C104.542 37.328 102.6 39.3973 100.766 43.536C98.9735 47.6747 98.0775 51.6 98.0775 55.312C98.0775 57.3173 98.2908 58.6827 98.7175 59.408C99.1868 60.1333 100.062 60.496 101.342 60.496C102.92 60.496 104.414 59.216 105.822 56.656C107.272 54.096 108.254 50.9387 108.766 47.184C108.168 47.056 107.72 46.7787 107.422 46.352C107.166 45.8827 107.038 45.264 107.038 44.496C107.038 43.6853 107.208 42.9813 107.55 42.384C107.891 41.7867 108.382 41.3387 109.022 41.04C108.936 39.6747 108.702 38.7147 108.318 38.16C107.976 37.6053 107.4 37.328 106.59 37.328ZM124.347 66H115.13L121.915 34H131.131L130.299 37.968C132.176 36.3893 133.648 35.344 134.715 34.832C135.824 34.2773 136.933 34 138.043 34C139.365 34 140.432 34.4693 141.243 35.408C142.053 36.304 142.459 37.4347 142.459 38.8C142.459 40.1227 142.032 41.232 141.179 42.128C140.325 43.024 139.216 43.472 137.851 43.472C137.125 43.472 136.549 43.3013 136.123 42.96C135.739 42.6187 135.461 41.9147 135.291 40.848C135.163 40.1653 135.013 39.7387 134.843 39.568C134.672 39.3547 134.437 39.248 134.139 39.248C133.413 39.248 132.731 39.3973 132.091 39.696C131.451 39.9947 130.576 40.656 129.467 41.68L124.347 66ZM157.177 59.152C157.177 58.384 157.262 57.424 157.433 56.272C157.646 55.12 158.052 53.2853 158.649 50.768C159.246 48.336 159.63 46.5867 159.801 45.52C159.972 44.4533 160.057 43.5573 160.057 42.832C160.057 41.7653 159.865 40.9547 159.481 40.4C159.097 39.8453 158.521 39.568 157.753 39.568C156.729 39.568 155.769 40.1013 154.873 41.168C154.02 42.192 153.316 43.6213 152.761 45.456L148.409 66H139.193L145.977 34H155.193L154.489 37.328C155.556 36.1333 156.708 35.2373 157.945 34.64C159.182 34.0427 160.526 33.744 161.977 33.744C164.238 33.744 165.988 34.3627 167.225 35.6C168.462 36.8373 169.081 38.6293 169.081 40.976C169.081 41.9573 168.953 43.1307 168.697 44.496C168.484 45.8187 168.036 47.8667 167.353 50.64C166.798 52.816 166.436 54.352 166.265 55.248C166.094 56.144 166.009 56.8907 166.009 57.488C166.009 58.384 166.222 59.0667 166.649 59.536C167.076 59.9627 167.716 60.176 168.569 60.176C169.636 60.176 170.553 59.8133 171.321 59.088C172.089 58.3627 172.964 56.848 173.945 54.544H176.633C175.268 58.512 173.604 61.4773 171.641 63.44C169.721 65.4027 167.417 66.384 164.729 66.384C162.34 66.384 160.484 65.744 159.161 64.464C157.838 63.1413 157.177 61.3707 157.177 59.152ZM195.363 36.944V37.392L196.067 34H205.283L200.675 55.76C200.589 56.144 200.525 56.5067 200.483 56.848C200.44 57.1467 200.419 57.4667 200.419 57.808C200.419 58.7467 200.632 59.4507 201.059 59.92C201.485 60.3467 202.147 60.56 203.043 60.56C204.152 60.56 205.155 60.048 206.051 59.024C206.947 57.9573 207.672 56.464 208.227 54.544H210.915C209.549 58.4693 207.779 61.4347 205.603 63.44C203.427 65.4027 200.909 66.384 198.051 66.384C196.216 66.384 194.744 65.872 193.635 64.848C192.568 63.824 191.949 62.3733 191.779 60.496C190.456 62.4587 188.984 63.9307 187.363 64.912C185.784 65.8933 184.077 66.384 182.243 66.384C179.597 66.384 177.507 65.488 175.971 63.696C174.477 61.904 173.73 59.3653 173.73 56.08C173.73 53.6907 174.093 51.1947 174.819 48.592C175.544 45.9893 176.547 43.6213 177.827 41.488C179.405 38.9707 181.24 37.0507 183.331 35.728C185.421 34.3627 187.704 33.68 190.179 33.68C191.843 33.68 193.123 33.9787 194.019 34.576C194.915 35.1307 195.363 35.92 195.363 36.944ZM194.787 40.08C194.787 39.44 194.552 38.8853 194.083 38.416C193.613 37.904 192.973 37.648 192.163 37.648C189.816 37.648 187.725 39.6107 185.891 43.536C184.099 47.4613 183.203 51.344 183.203 55.184C183.203 56.848 183.437 58.1067 183.907 58.96C184.376 59.7707 185.208 60.176 186.403 60.176C187.512 60.176 188.579 59.6427 189.603 58.576C190.669 57.5093 191.373 56.1653 191.715 54.544L194.787 40.08ZM228.221 55.312C228.221 55.824 228.2 56.272 228.157 56.656C228.114 57.04 228.05 57.4027 227.965 57.744C228.818 57.232 229.65 56.6987 230.461 56.144C231.272 55.5893 231.976 55.056 232.573 54.544H235.261C233.938 56.08 232.466 57.5093 230.845 58.832C229.266 60.112 227.474 61.3493 225.469 62.544C224.317 63.7813 222.845 64.7413 221.053 65.424C219.261 66.064 217.384 66.384 215.421 66.384C212.562 66.384 210.28 65.616 208.573 64.08C206.909 62.5013 206.077 60.5387 206.077 58.192C206.077 56.8693 206.397 55.6747 207.037 54.608C207.677 53.4987 208.488 52.7093 209.469 52.24C210.92 49.6373 212.264 46.864 213.501 43.92C214.781 40.9333 216.061 37.392 217.341 33.296L226.813 32.016C226.941 35.216 227.09 38.1387 227.261 40.784C227.432 43.4293 227.645 46.3093 227.901 49.424C228.029 51.216 228.114 52.4747 228.157 53.2C228.2 53.9253 228.221 54.6293 228.221 55.312ZM217.725 40.208C217.17 41.9573 216.488 43.792 215.677 45.712C214.909 47.5893 213.864 49.7867 212.541 52.304C213.01 52.5173 213.373 52.816 213.629 53.2C213.885 53.584 214.013 54.032 214.013 54.544C214.013 55.3547 213.736 56.08 213.181 56.72C212.626 57.36 211.965 57.68 211.197 57.68C210.77 57.68 210.408 57.616 210.109 57.488C209.81 57.3173 209.597 57.104 209.469 56.848C209.469 58.4267 209.768 59.5787 210.365 60.304C211.005 60.9867 212.008 61.328 213.373 61.328C215.122 61.328 216.488 60.816 217.469 59.792C218.45 58.768 218.941 57.296 218.941 55.376C218.941 54.7787 218.92 54.1813 218.877 53.584C218.834 52.944 218.749 51.8987 218.621 50.448C218.408 48.4427 218.237 46.672 218.109 45.136C217.981 43.6 217.853 41.9573 217.725 40.208ZM232.166 56.144C232.166 53.712 232.55 51.1307 233.319 48.4C234.129 45.6693 235.217 43.2373 236.583 41.104C238.161 38.5867 240.06 36.688 242.279 35.408C244.497 34.0853 246.972 33.424 249.703 33.424C252.433 33.424 254.481 34.2773 255.847 35.984C257.212 37.6907 257.895 40.2507 257.895 43.664C257.98 43.7067 258.065 43.7493 258.151 43.792C258.279 43.792 258.428 43.792 258.599 43.792C259.921 43.792 261.5 43.4293 263.335 42.704C265.169 41.9787 266.876 41.0613 268.455 39.952L269.031 41.68C267.836 42.96 266.236 44.0693 264.231 45.008C262.268 45.9467 260.092 46.608 257.703 46.992C257.191 52.752 255.527 57.4027 252.711 60.944C249.895 64.4853 246.46 66.256 242.407 66.256C239.079 66.256 236.54 65.4027 234.791 63.696C233.041 61.9893 232.166 59.472 232.166 56.144ZM250.215 37.328C248.167 37.328 246.225 39.3973 244.391 43.536C242.599 47.6747 241.703 51.6 241.703 55.312C241.703 57.3173 241.916 58.6827 242.343 59.408C242.812 60.1333 243.687 60.496 244.967 60.496C246.545 60.496 248.039 59.216 249.447 56.656C250.897 54.096 251.879 50.9387 252.391 47.184C251.793 47.056 251.345 46.7787 251.047 46.352C250.791 45.8827 250.663 45.264 250.663 44.496C250.663 43.6853 250.833 42.9813 251.175 42.384C251.516 41.7867 252.007 41.3387 252.647 41.04C252.561 39.6747 252.327 38.7147 251.943 38.16C251.601 37.6053 251.025 37.328 250.215 37.328ZM261.05 58.704C261.05 58.1493 261.093 57.5307 261.178 56.848C261.264 56.1227 261.392 55.3547 261.562 54.544L268.411 22.48L277.883 21.2L270.523 55.76C270.437 56.144 270.373 56.5067 270.331 56.848C270.288 57.1467 270.267 57.4667 270.267 57.808C270.267 58.6613 270.459 59.28 270.843 59.664C271.269 60.0053 271.952 60.176 272.891 60.176C274.085 60.176 275.216 59.664 276.283 58.64C277.349 57.5733 278.139 56.208 278.651 54.544H281.339C279.973 58.4267 278.139 61.3707 275.835 63.376C273.531 65.3813 270.885 66.384 267.899 66.384C265.765 66.384 264.08 65.7227 262.843 64.4C261.648 63.0347 261.05 61.136 261.05 58.704Z" fill="#F7F7F7"/>
</svg>
