<svg width="65" height="65" viewBox="0 0 65 65" fill="none" xmlns="http://www.w3.org/2000/svg">
<path d="M52.8125 12.1875C50.5997 14.3053 47.9674 15.9356 45.0856 16.9731C42.0469 17.5094 33.6375 13.6094 29.4938 17.5906C28.8031 18.2812 27.95 18.9719 27.0562 19.6625C25.1062 18.8094 22.1 17.5094 19.9062 16.25C17.7125 14.9906 12.1875 12.1875 12.1875 12.1875L0 26.4062C0 26.4062 3.00625 30.4688 4.875 33.15C6.09375 34.9375 7.59687 37.6594 8.57187 39.4875L7.19062 41.1125C6.85985 41.7696 6.74084 42.513 6.84996 43.2406C6.95909 43.9681 7.29099 44.6439 7.8 45.175C8.38752 45.6155 9.10237 45.8529 9.83667 45.8514C10.571 45.8499 11.2849 45.6097 11.8706 45.1669C11.6534 45.4212 11.489 45.7162 11.3871 46.0347C11.2851 46.3532 11.2476 46.6888 11.2767 47.022C11.3058 47.3551 11.401 47.6792 11.5567 47.9752C11.7124 48.2711 11.9254 48.5332 12.1834 48.7459C12.8038 49.1082 13.5096 49.2985 14.228 49.2971C14.9464 49.2956 15.6514 49.1026 16.2703 48.7378C15.8062 49.3164 15.5522 50.0354 15.55 50.7771C15.5477 51.5188 15.7974 52.2393 16.2581 52.8206C16.857 53.0279 17.4957 53.094 18.1243 53.0137C18.7529 52.9333 19.3544 52.7088 19.8819 52.3575C19.6191 52.9795 19.551 53.6665 19.6867 54.3279C19.8223 54.9893 20.1552 55.5941 20.6416 56.0625C21.3286 56.3678 22.0818 56.4936 22.8307 56.4282C23.5797 56.3629 24.2997 56.1084 24.9234 55.6888L27.0197 53.7916C28.9372 55.7009 31.5819 56.8831 34.5028 56.8831L34.7506 56.8791C35.7132 56.7969 36.6353 56.4544 37.4182 55.8884C38.2011 55.3223 38.8153 54.554 39.195 53.6656C39.7881 53.8931 40.4625 54.0475 41.1775 54.0475C42.1362 54.0475 43.0259 53.7713 43.7775 53.2959C46.1541 51.7238 45.5853 50.505 45.5853 50.505C46.4304 50.8688 47.3691 50.955 48.2663 50.7513C49.1635 50.5477 49.9729 50.0646 50.5781 49.3716C51.207 48.7282 51.6035 47.8937 51.7051 46.9998C51.8066 46.1059 51.6073 45.2036 51.1388 44.4356C51.1644 44.451 51.1942 44.4581 51.2241 44.4559C52.9344 44.4559 54.4212 43.5134 55.1972 42.1241C55.579 41.1366 55.7081 40.0693 55.5725 39.0193C55.437 37.9693 55.0413 36.9697 54.4212 36.1116L54.4334 36.1319C57.7647 35.4819 57.6428 33.8162 59.2678 31.3787C60.8064 29.3896 62.7209 27.7222 64.9025 26.4712L52.8125 12.1875ZM52.6094 40.8688C50.8219 42.6563 49.4406 41.8844 46.3937 39.5687C43.3469 37.2531 37.2938 32.9063 37.2938 32.9063C37.5416 34.1453 38.1144 35.2219 38.9228 36.0791C40.2188 37.5375 44.0781 40.8687 45.9062 42.575C47.0438 43.6312 49.9688 45.7437 48.2625 47.3687C46.5563 48.9937 45.2156 47.3688 42.4125 45.0938C39.6094 42.8188 33.3531 37.2125 33.3531 37.2125C33.3187 37.7499 33.3986 38.2885 33.5877 38.7927C33.7768 39.2969 34.0707 39.7553 34.45 40.1375C35.1406 40.95 39 44.6875 40.625 46.3937C42.25 48.1 43.6719 49.1156 42.2906 50.4562C40.9094 51.7969 38.1063 49.6844 36.5625 48.1C34.1656 45.7844 29.4125 41.4781 29.4125 41.4781L29.4084 41.6934C29.4084 42.8472 29.8066 43.9034 30.4769 44.7403C31.6469 46.2759 33.9219 48.2666 35.3031 49.8103C36.6844 51.3541 37.4969 52.6541 35.3031 53.8728C33.1094 55.0916 29.8594 52.0853 28.4375 50.6228V50.6147C28.4378 50.2134 28.2936 49.8255 28.0312 49.5219C27.5453 49.0717 26.9457 48.7627 26.2972 48.6281C25.6486 48.4935 24.9756 48.5385 24.3506 48.7581C24.6077 48.5279 24.8139 48.2465 24.9557 47.9319C25.0976 47.6173 25.1721 47.2764 25.1744 46.9313C25.1766 46.5862 25.1067 46.2445 24.9691 45.928C24.8314 45.6115 24.629 45.3274 24.375 45.0938C23.8417 44.6897 23.1909 44.4714 22.5218 44.4721C21.8528 44.4729 21.2024 44.6926 20.67 45.0978C20.9392 44.8407 21.147 44.5262 21.278 44.1777C21.409 43.8293 21.4597 43.4558 21.4266 43.085C21.3934 42.7142 21.2771 42.3556 21.0863 42.036C20.8956 41.7163 20.6353 41.4437 20.3247 41.2384C19.5974 40.7815 18.7441 40.5668 17.8871 40.6252C17.0302 40.6836 16.2139 41.012 15.5553 41.5634C15.9954 41.03 16.2124 40.3471 16.161 39.6575C16.1095 38.9678 15.7935 38.3247 15.2791 37.8625C14.6397 37.2674 13.8249 36.8951 12.9565 36.8014C12.088 36.7077 11.2126 36.8975 10.4609 37.3425L7.75938 32.7803C5.89062 29.8147 3.69688 26.7272 3.69688 26.7272L12.9594 15.4741C12.9594 15.4741 16.25 17.5053 18.9719 19.0491C20.3125 19.8209 22.6281 20.8366 24.375 21.6491C21.6125 23.7209 19.2969 25.7116 19.9875 27.0928C21.2182 27.9763 22.6891 28.4636 24.2039 28.4897C25.7187 28.5159 27.2055 28.0796 28.4659 27.2391C30.0821 26.1646 31.9812 25.5948 33.9219 25.6019C35.3316 25.6019 36.6722 25.8944 37.8869 26.4266C40.1375 27.9459 44.2812 31.6834 48.0594 34.0397C52.8125 37.4928 53.7469 39.7272 52.6094 40.8647V40.8688Z" fill="#2CA6C5"/>
</svg>
